<?xml version="1.0" encoding="utf-8"?>
<svg xmlns="http://www.w3.org/2000/svg" xmlns:xlink="http://www.w3.org/1999/xlink" style="margin: auto; background: none; display: block; shape-rendering: auto;" width="231px" height="231px" viewBox="0 0 100 100" preserveAspectRatio="xMidYMid">
<g transform="rotate(0 50 50)">
  <rect x="47.5" y="16.5" rx="2.5" ry="20.5" width="5" height="41" fill="#1b22ff">
    <animate attributeName="opacity" values="1;0" keyTimes="0;1" dur="0.7042253521126761s" begin="-0.6889161053276179s" repeatCount="indefinite"></animate>
  </rect>
</g><g transform="rotate(7.826086956521739 50 50)">
  <rect x="47.5" y="16.5" rx="2.5" ry="20.5" width="5" height="41" fill="#1b22ff">
    <animate attributeName="opacity" values="1;0" keyTimes="0;1" dur="0.7042253521126761s" begin="-0.6736068585425597s" repeatCount="indefinite"></animate>
  </rect>
</g><g transform="rotate(15.652173913043478 50 50)">
  <rect x="47.5" y="16.5" rx="2.5" ry="20.5" width="5" height="41" fill="#1b22ff">
    <animate attributeName="opacity" values="1;0" keyTimes="0;1" dur="0.7042253521126761s" begin="-0.6582976117575016s" repeatCount="indefinite"></animate>
  </rect>
</g><g transform="rotate(23.47826086956522 50 50)">
  <rect x="47.5" y="16.5" rx="2.5" ry="20.5" width="5" height="41" fill="#1b22ff">
    <animate attributeName="opacity" values="1;0" keyTimes="0;1" dur="0.7042253521126761s" begin="-0.6429883649724434s" repeatCount="indefinite"></animate>
  </rect>
</g><g transform="rotate(31.304347826086957 50 50)">
  <rect x="47.5" y="16.5" rx="2.5" ry="20.5" width="5" height="41" fill="#1b22ff">
    <animate attributeName="opacity" values="1;0" keyTimes="0;1" dur="0.7042253521126761s" begin="-0.6276791181873852s" repeatCount="indefinite"></animate>
  </rect>
</g><g transform="rotate(39.130434782608695 50 50)">
  <rect x="47.5" y="16.5" rx="2.5" ry="20.5" width="5" height="41" fill="#1b22ff">
    <animate attributeName="opacity" values="1;0" keyTimes="0;1" dur="0.7042253521126761s" begin="-0.612369871402327s" repeatCount="indefinite"></animate>
  </rect>
</g><g transform="rotate(46.95652173913044 50 50)">
  <rect x="47.5" y="16.5" rx="2.5" ry="20.5" width="5" height="41" fill="#1b22ff">
    <animate attributeName="opacity" values="1;0" keyTimes="0;1" dur="0.7042253521126761s" begin="-0.5970606246172689s" repeatCount="indefinite"></animate>
  </rect>
</g><g transform="rotate(54.78260869565217 50 50)">
  <rect x="47.5" y="16.5" rx="2.5" ry="20.5" width="5" height="41" fill="#1b22ff">
    <animate attributeName="opacity" values="1;0" keyTimes="0;1" dur="0.7042253521126761s" begin="-0.5817513778322108s" repeatCount="indefinite"></animate>
  </rect>
</g><g transform="rotate(62.608695652173914 50 50)">
  <rect x="47.5" y="16.5" rx="2.5" ry="20.5" width="5" height="41" fill="#1b22ff">
    <animate attributeName="opacity" values="1;0" keyTimes="0;1" dur="0.7042253521126761s" begin="-0.5664421310471526s" repeatCount="indefinite"></animate>
  </rect>
</g><g transform="rotate(70.43478260869566 50 50)">
  <rect x="47.5" y="16.5" rx="2.5" ry="20.5" width="5" height="41" fill="#1b22ff">
    <animate attributeName="opacity" values="1;0" keyTimes="0;1" dur="0.7042253521126761s" begin="-0.5511328842620944s" repeatCount="indefinite"></animate>
  </rect>
</g><g transform="rotate(78.26086956521739 50 50)">
  <rect x="47.5" y="16.5" rx="2.5" ry="20.5" width="5" height="41" fill="#1b22ff">
    <animate attributeName="opacity" values="1;0" keyTimes="0;1" dur="0.7042253521126761s" begin="-0.5358236374770362s" repeatCount="indefinite"></animate>
  </rect>
</g><g transform="rotate(86.08695652173913 50 50)">
  <rect x="47.5" y="16.5" rx="2.5" ry="20.5" width="5" height="41" fill="#1b22ff">
    <animate attributeName="opacity" values="1;0" keyTimes="0;1" dur="0.7042253521126761s" begin="-0.520514390691978s" repeatCount="indefinite"></animate>
  </rect>
</g><g transform="rotate(93.91304347826087 50 50)">
  <rect x="47.5" y="16.5" rx="2.5" ry="20.5" width="5" height="41" fill="#1b22ff">
    <animate attributeName="opacity" values="1;0" keyTimes="0;1" dur="0.7042253521126761s" begin="-0.5052051439069198s" repeatCount="indefinite"></animate>
  </rect>
</g><g transform="rotate(101.73913043478261 50 50)">
  <rect x="47.5" y="16.5" rx="2.5" ry="20.5" width="5" height="41" fill="#1b22ff">
    <animate attributeName="opacity" values="1;0" keyTimes="0;1" dur="0.7042253521126761s" begin="-0.48989589712186166s" repeatCount="indefinite"></animate>
  </rect>
</g><g transform="rotate(109.56521739130434 50 50)">
  <rect x="47.5" y="16.5" rx="2.5" ry="20.5" width="5" height="41" fill="#1b22ff">
    <animate attributeName="opacity" values="1;0" keyTimes="0;1" dur="0.7042253521126761s" begin="-0.4745866503368035s" repeatCount="indefinite"></animate>
  </rect>
</g><g transform="rotate(117.3913043478261 50 50)">
  <rect x="47.5" y="16.5" rx="2.5" ry="20.5" width="5" height="41" fill="#1b22ff">
    <animate attributeName="opacity" values="1;0" keyTimes="0;1" dur="0.7042253521126761s" begin="-0.4592774035517453s" repeatCount="indefinite"></animate>
  </rect>
</g><g transform="rotate(125.21739130434783 50 50)">
  <rect x="47.5" y="16.5" rx="2.5" ry="20.5" width="5" height="41" fill="#1b22ff">
    <animate attributeName="opacity" values="1;0" keyTimes="0;1" dur="0.7042253521126761s" begin="-0.4439681567666871s" repeatCount="indefinite"></animate>
  </rect>
</g><g transform="rotate(133.04347826086956 50 50)">
  <rect x="47.5" y="16.5" rx="2.5" ry="20.5" width="5" height="41" fill="#1b22ff">
    <animate attributeName="opacity" values="1;0" keyTimes="0;1" dur="0.7042253521126761s" begin="-0.4286589099816289s" repeatCount="indefinite"></animate>
  </rect>
</g><g transform="rotate(140.8695652173913 50 50)">
  <rect x="47.5" y="16.5" rx="2.5" ry="20.5" width="5" height="41" fill="#1b22ff">
    <animate attributeName="opacity" values="1;0" keyTimes="0;1" dur="0.7042253521126761s" begin="-0.4133496631965708s" repeatCount="indefinite"></animate>
  </rect>
</g><g transform="rotate(148.69565217391303 50 50)">
  <rect x="47.5" y="16.5" rx="2.5" ry="20.5" width="5" height="41" fill="#1b22ff">
    <animate attributeName="opacity" values="1;0" keyTimes="0;1" dur="0.7042253521126761s" begin="-0.3980404164115126s" repeatCount="indefinite"></animate>
  </rect>
</g><g transform="rotate(156.52173913043478 50 50)">
  <rect x="47.5" y="16.5" rx="2.5" ry="20.5" width="5" height="41" fill="#1b22ff">
    <animate attributeName="opacity" values="1;0" keyTimes="0;1" dur="0.7042253521126761s" begin="-0.3827311696264544s" repeatCount="indefinite"></animate>
  </rect>
</g><g transform="rotate(164.34782608695653 50 50)">
  <rect x="47.5" y="16.5" rx="2.5" ry="20.5" width="5" height="41" fill="#1b22ff">
    <animate attributeName="opacity" values="1;0" keyTimes="0;1" dur="0.7042253521126761s" begin="-0.36742192284139624s" repeatCount="indefinite"></animate>
  </rect>
</g><g transform="rotate(172.17391304347825 50 50)">
  <rect x="47.5" y="16.5" rx="2.5" ry="20.5" width="5" height="41" fill="#1b22ff">
    <animate attributeName="opacity" values="1;0" keyTimes="0;1" dur="0.7042253521126761s" begin="-0.35211267605633806s" repeatCount="indefinite"></animate>
  </rect>
</g><g transform="rotate(180 50 50)">
  <rect x="47.5" y="16.5" rx="2.5" ry="20.5" width="5" height="41" fill="#1b22ff">
    <animate attributeName="opacity" values="1;0" keyTimes="0;1" dur="0.7042253521126761s" begin="-0.3368034292712799s" repeatCount="indefinite"></animate>
  </rect>
</g><g transform="rotate(187.82608695652175 50 50)">
  <rect x="47.5" y="16.5" rx="2.5" ry="20.5" width="5" height="41" fill="#1b22ff">
    <animate attributeName="opacity" values="1;0" keyTimes="0;1" dur="0.7042253521126761s" begin="-0.3214941824862217s" repeatCount="indefinite"></animate>
  </rect>
</g><g transform="rotate(195.65217391304347 50 50)">
  <rect x="47.5" y="16.5" rx="2.5" ry="20.5" width="5" height="41" fill="#1b22ff">
    <animate attributeName="opacity" values="1;0" keyTimes="0;1" dur="0.7042253521126761s" begin="-0.3061849357011635s" repeatCount="indefinite"></animate>
  </rect>
</g><g transform="rotate(203.47826086956522 50 50)">
  <rect x="47.5" y="16.5" rx="2.5" ry="20.5" width="5" height="41" fill="#1b22ff">
    <animate attributeName="opacity" values="1;0" keyTimes="0;1" dur="0.7042253521126761s" begin="-0.2908756889161054s" repeatCount="indefinite"></animate>
  </rect>
</g><g transform="rotate(211.30434782608697 50 50)">
  <rect x="47.5" y="16.5" rx="2.5" ry="20.5" width="5" height="41" fill="#1b22ff">
    <animate attributeName="opacity" values="1;0" keyTimes="0;1" dur="0.7042253521126761s" begin="-0.2755664421310472s" repeatCount="indefinite"></animate>
  </rect>
</g><g transform="rotate(219.1304347826087 50 50)">
  <rect x="47.5" y="16.5" rx="2.5" ry="20.5" width="5" height="41" fill="#1b22ff">
    <animate attributeName="opacity" values="1;0" keyTimes="0;1" dur="0.7042253521126761s" begin="-0.260257195345989s" repeatCount="indefinite"></animate>
  </rect>
</g><g transform="rotate(226.95652173913044 50 50)">
  <rect x="47.5" y="16.5" rx="2.5" ry="20.5" width="5" height="41" fill="#1b22ff">
    <animate attributeName="opacity" values="1;0" keyTimes="0;1" dur="0.7042253521126761s" begin="-0.24494794856093083s" repeatCount="indefinite"></animate>
  </rect>
</g><g transform="rotate(234.7826086956522 50 50)">
  <rect x="47.5" y="16.5" rx="2.5" ry="20.5" width="5" height="41" fill="#1b22ff">
    <animate attributeName="opacity" values="1;0" keyTimes="0;1" dur="0.7042253521126761s" begin="-0.22963870177587264s" repeatCount="indefinite"></animate>
  </rect>
</g><g transform="rotate(242.6086956521739 50 50)">
  <rect x="47.5" y="16.5" rx="2.5" ry="20.5" width="5" height="41" fill="#1b22ff">
    <animate attributeName="opacity" values="1;0" keyTimes="0;1" dur="0.7042253521126761s" begin="-0.21432945499081446s" repeatCount="indefinite"></animate>
  </rect>
</g><g transform="rotate(250.43478260869566 50 50)">
  <rect x="47.5" y="16.5" rx="2.5" ry="20.5" width="5" height="41" fill="#1b22ff">
    <animate attributeName="opacity" values="1;0" keyTimes="0;1" dur="0.7042253521126761s" begin="-0.1990202082057563s" repeatCount="indefinite"></animate>
  </rect>
</g><g transform="rotate(258.2608695652174 50 50)">
  <rect x="47.5" y="16.5" rx="2.5" ry="20.5" width="5" height="41" fill="#1b22ff">
    <animate attributeName="opacity" values="1;0" keyTimes="0;1" dur="0.7042253521126761s" begin="-0.18371096142069812s" repeatCount="indefinite"></animate>
  </rect>
</g><g transform="rotate(266.0869565217391 50 50)">
  <rect x="47.5" y="16.5" rx="2.5" ry="20.5" width="5" height="41" fill="#1b22ff">
    <animate attributeName="opacity" values="1;0" keyTimes="0;1" dur="0.7042253521126761s" begin="-0.16840171463563994s" repeatCount="indefinite"></animate>
  </rect>
</g><g transform="rotate(273.9130434782609 50 50)">
  <rect x="47.5" y="16.5" rx="2.5" ry="20.5" width="5" height="41" fill="#1b22ff">
    <animate attributeName="opacity" values="1;0" keyTimes="0;1" dur="0.7042253521126761s" begin="-0.15309246785058175s" repeatCount="indefinite"></animate>
  </rect>
</g><g transform="rotate(281.7391304347826 50 50)">
  <rect x="47.5" y="16.5" rx="2.5" ry="20.5" width="5" height="41" fill="#1b22ff">
    <animate attributeName="opacity" values="1;0" keyTimes="0;1" dur="0.7042253521126761s" begin="-0.1377832210655236s" repeatCount="indefinite"></animate>
  </rect>
</g><g transform="rotate(289.5652173913044 50 50)">
  <rect x="47.5" y="16.5" rx="2.5" ry="20.5" width="5" height="41" fill="#1b22ff">
    <animate attributeName="opacity" values="1;0" keyTimes="0;1" dur="0.7042253521126761s" begin="-0.12247397428046541s" repeatCount="indefinite"></animate>
  </rect>
</g><g transform="rotate(297.39130434782606 50 50)">
  <rect x="47.5" y="16.5" rx="2.5" ry="20.5" width="5" height="41" fill="#1b22ff">
    <animate attributeName="opacity" values="1;0" keyTimes="0;1" dur="0.7042253521126761s" begin="-0.10716472749540723s" repeatCount="indefinite"></animate>
  </rect>
</g><g transform="rotate(305.2173913043478 50 50)">
  <rect x="47.5" y="16.5" rx="2.5" ry="20.5" width="5" height="41" fill="#1b22ff">
    <animate attributeName="opacity" values="1;0" keyTimes="0;1" dur="0.7042253521126761s" begin="-0.09185548071034906s" repeatCount="indefinite"></animate>
  </rect>
</g><g transform="rotate(313.04347826086956 50 50)">
  <rect x="47.5" y="16.5" rx="2.5" ry="20.5" width="5" height="41" fill="#1b22ff">
    <animate attributeName="opacity" values="1;0" keyTimes="0;1" dur="0.7042253521126761s" begin="-0.07654623392529088s" repeatCount="indefinite"></animate>
  </rect>
</g><g transform="rotate(320.8695652173913 50 50)">
  <rect x="47.5" y="16.5" rx="2.5" ry="20.5" width="5" height="41" fill="#1b22ff">
    <animate attributeName="opacity" values="1;0" keyTimes="0;1" dur="0.7042253521126761s" begin="-0.06123698714023271s" repeatCount="indefinite"></animate>
  </rect>
</g><g transform="rotate(328.69565217391306 50 50)">
  <rect x="47.5" y="16.5" rx="2.5" ry="20.5" width="5" height="41" fill="#1b22ff">
    <animate attributeName="opacity" values="1;0" keyTimes="0;1" dur="0.7042253521126761s" begin="-0.04592774035517453s" repeatCount="indefinite"></animate>
  </rect>
</g><g transform="rotate(336.5217391304348 50 50)">
  <rect x="47.5" y="16.5" rx="2.5" ry="20.5" width="5" height="41" fill="#1b22ff">
    <animate attributeName="opacity" values="1;0" keyTimes="0;1" dur="0.7042253521126761s" begin="-0.030618493570116354s" repeatCount="indefinite"></animate>
  </rect>
</g><g transform="rotate(344.3478260869565 50 50)">
  <rect x="47.5" y="16.5" rx="2.5" ry="20.5" width="5" height="41" fill="#1b22ff">
    <animate attributeName="opacity" values="1;0" keyTimes="0;1" dur="0.7042253521126761s" begin="-0.015309246785058177s" repeatCount="indefinite"></animate>
  </rect>
</g><g transform="rotate(352.17391304347825 50 50)">
  <rect x="47.5" y="16.5" rx="2.5" ry="20.5" width="5" height="41" fill="#1b22ff">
    <animate attributeName="opacity" values="1;0" keyTimes="0;1" dur="0.7042253521126761s" begin="0s" repeatCount="indefinite"></animate>
  </rect>
</g>
<!-- [ldio] generated by https://loading.io/ --></svg>